<?xml version="1.0" encoding="utf-8"?>
<!-- Generator: Adobe Illustrator 25.4.1, SVG Export Plug-In . SVG Version: 6.00 Build 0)  -->
<svg version="1.1" id="Layer_1" xmlns="http://www.w3.org/2000/svg" xmlns:xlink="http://www.w3.org/1999/xlink" x="0px" y="0px"
	 viewBox="0 0 262.8 76.5" style="enable-background:new 0 0 262.8 76.5;" xml:space="preserve">
<style type="text/css">
	.st0{fill:#072543;}
	.st1{fill:#FFB000;}
</style>
<g>
	<path class="st0" d="M0,2.6h40.8v10.7h-27v11.6h23.8v10.8H13.8v11.6h27V58H0V2.6z"/>
	<path class="st0" d="M47.9,17.2h12.9l0.4,3.5c1.8-1.3,3.9-2.3,6.5-3.1c2.6-0.8,5.2-1.2,7.9-1.2c5.2,0,9,1.3,11.5,3.8
		c2.4,2.5,3.7,6.4,3.7,11.7V58H76.9v-25c0-2.3-0.5-3.9-1.5-4.9c-1-1-2.7-1.5-5.2-1.5c-1.5,0-3,0.3-4.6,1c-1.5,0.7-2.8,1.5-3.9,2.6
		V58H47.9V17.2z"/>
	<path class="st0" d="M99.5,17.2h12l0.7,3.5c3.6-2.9,7.8-4.4,12.8-4.4c12.6,0,18.8,6.8,18.8,20.4c0,7.2-1.7,12.7-5.2,16.5
		c-3.4,3.8-8.2,5.6-14.4,5.6c-4.3,0-8-0.9-11-2.7v20.4H99.5V17.2z M127.5,45.6c1.5-2.1,2.3-5.1,2.3-9.1c0-3.8-0.7-6.4-2-7.8
		c-1.3-1.4-3.6-2.1-6.7-2.1c-2.9,0-5.5,1-7.7,3.1v16.5c1.1,0.9,2.3,1.5,3.4,1.9c1.1,0.4,2.5,0.6,4.1,0.6
		C123.8,48.7,126,47.6,127.5,45.6z"/>
	<path class="st0" d="M153.7,55.5c-2.7-2.2-4.1-5.4-4.1-9.5c0-4.2,1.4-7.5,4.3-9.9c2.9-2.4,7.1-3.5,12.7-3.5H178v-0.9
		c0-2.1-0.7-3.6-2.1-4.5c-1.4-0.9-4-1.3-7.7-1.3c-4.6,0-9.2,0.7-13.7,2.2v-8.9c2.1-0.8,4.6-1.5,7.5-2c2.9-0.5,5.9-0.8,9-0.8
		c6.5,0,11.5,1.3,15,4c3.5,2.6,5.2,6.7,5.2,12.2V58h-12.1l-0.7-3.4c-3.2,2.9-7.9,4.3-14.4,4.3C159.9,58.8,156.4,57.7,153.7,55.5z
		 M178,46.4v-5.8h-9.8c-2.1,0-3.6,0.4-4.6,1.2c-1,0.8-1.5,2-1.5,3.7c0,3.2,2.1,4.8,6.4,4.8C172.6,50.3,175.8,49,178,46.4z"/>
	<path class="st0" d="M203.2,55.9c-1.9-1.9-2.9-5.1-2.9-9.4V0h13.8v45.1c0,1.3,0.3,2.2,0.8,2.7c0.5,0.5,1.3,0.7,2.5,0.7
		c1.5,0,2.9-0.2,4.1-0.6v9.4c-1.4,0.5-2.7,0.9-4,1.1c-1.3,0.2-2.9,0.3-4.7,0.3C208.4,58.8,205.2,57.8,203.2,55.9z"/>
	<circle class="st1" cx="252.3" cy="50" r="10.5"/>
</g>
</svg>
